<?xml version="1.0" standalone="no"?><!DOCTYPE svg PUBLIC "-//W3C//DTD SVG 1.1//EN" "http://www.w3.org/Graphics/SVG/1.1/DTD/svg11.dtd"><svg t="1728722028667" class="icon" viewBox="0 0 1024 1024" version="1.1" xmlns="http://www.w3.org/2000/svg" p-id="2329" xmlns:xlink="http://www.w3.org/1999/xlink" width="200" height="200"><path d="M823.695572 105.813237C770.817591 65.206355 710.245223 35.193354 644.489199 17.574079 371.423662-55.59361 90.746187 106.45561 17.578484 379.521142-55.589201 652.586675 106.460024 933.264157 379.525561 1006.431846 652.59108 1079.599534 933.268573 917.550315 1006.436258 644.484783 1024.055543 578.728753 1028.349689 511.265049 1019.622098 445.167928 1015.229243 411.899353 1007.559025 379.171383 996.757205 347.441803 991.358423 331.583207 985.185064 315.997012 978.262782 300.74125 970.726566 284.132464 951.153176 276.777694 934.544391 284.313912 917.935606 291.850132 910.58083 311.423527 918.117046 328.032314 924.149765 341.327601 929.529269 354.909529 934.233222 368.72706 943.640847 396.361313 950.319032 424.856379 954.142656 453.813967 961.738652 511.341108 958.001273 570.057531 942.638981 627.390354 878.912289 865.221624 634.451256 1006.361267 396.619981 942.634571 158.788706 878.907873 17.649069 634.446841 81.375761 396.615571 145.102471 158.7843 389.563503 17.644657 627.394761 81.371354 684.727584 96.733637 737.446193 122.855181 783.468168 158.197081 795.043417 167.086128 806.167034 176.538199 816.80348 186.51721 830.104625 198.996223 851.003584 198.32975 863.48259 185.028598 875.961614 171.727448 875.295139 150.828495 861.993977 138.349482 849.775699 126.886409 836.995905 116.02704 823.695572 105.813237L823.695572 105.813237ZM395.061454 653.061426C407.224101 669.301138 430.540449 671.970455 446.058634 658.899722L922.681896 257.44719C937.593616 244.887276 939.500122 222.617117 926.940221 207.705398 914.380302 192.793679 892.110134 190.887165 877.198415 203.447079L400.575152 604.899611 451.572332 610.737908 295.762884 402.699264C284.075562 387.094218 261.95073 383.918272 246.345682 395.605589 230.740635 407.292906 227.564683 429.417736 239.252005 445.02278L395.061454 653.061426 395.061454 653.061426Z" fill="#389BFF" p-id="2330"></path></svg>