<?xml version="1.0" standalone="no"?><!DOCTYPE svg PUBLIC "-//W3C//DTD SVG 1.1//EN" "http://www.w3.org/Graphics/SVG/1.1/DTD/svg11.dtd"><svg t="1730192553039" class="icon" viewBox="0 0 1024 1024" version="1.1" xmlns="http://www.w3.org/2000/svg" p-id="5606" xmlns:xlink="http://www.w3.org/1999/xlink" width="200" height="200"><path d="M0 512a512 512 0 1 0 1024 0A512 512 0 1 0 0 512z" fill="#FEC43C" p-id="5607"></path><path d="M1013.76 408.576C965.632 175.104 759.808 0 512 0 229.376 0 0 229.376 0 512c0 123.904 44.032 236.544 116.736 324.608 87.04 48.128 186.368 74.752 292.864 74.752 301.056 0 550.912-217.088 604.16-502.784z" fill="#FFD73A" p-id="5608"></path><path d="M512 778.24c-134.144 0-245.76-97.28-266.24-225.28-3.072-21.504 13.312-40.96 35.84-40.96h460.8c22.528 0 38.912 19.456 35.84 40.96-20.48 128-132.096 225.28-266.24 225.28z" fill="#873A18" p-id="5609"></path><path d="M742.4 512H281.6c-22.528 0-38.912 19.456-35.84 40.96 1.024 7.168 2.048 14.336 4.096 21.504H773.12c2.048-7.168 3.072-14.336 4.096-21.504C781.312 531.456 763.904 512 742.4 512z" fill="#FFFFFF" p-id="5610"></path><path d="M587.776 635.904c-30.72 0-58.368 15.36-75.776 38.912-16.384-23.552-44.032-38.912-75.776-38.912-48.128 0-88.064 36.864-92.16 83.968C390.144 756.736 448.512 778.24 512 778.24c63.488 0 121.856-21.504 167.936-58.368-4.096-47.104-44.032-83.968-92.16-83.968z" fill="#F44444" p-id="5611"></path><path d="M184.32 450.56c-10.24 0-18.432-7.168-20.48-17.408-2.048-11.264 6.144-21.504 17.408-23.552 62.464-10.24 121.856-29.696 178.176-56.32-58.368-24.576-119.808-39.936-182.272-46.08-11.264-1.024-19.456-11.264-18.432-22.528 1.024-11.264 11.264-19.456 22.528-18.432 77.824 8.192 152.576 29.696 224.256 62.464l10.24 5.12c7.168 3.072 11.264 10.24 12.288 18.432 0 8.192-4.096 15.36-11.264 18.432l-17.408 8.192c-66.56 35.84-138.24 59.392-211.968 71.68h-3.072z m672.768 0h-3.072c-74.752-12.288-145.408-35.84-211.968-71.68l-16.384-9.216c-7.168-4.096-11.264-11.264-11.264-18.432s5.12-14.336 12.288-18.432l10.24-5.12c70.656-32.768 146.432-54.272 224.256-62.464 11.264-1.024 21.504 7.168 22.528 18.432s-7.168 21.504-18.432 22.528c-63.488 7.168-123.904 22.528-182.272 46.08C738.304 380.928 798.72 399.36 860.16 409.6c11.264 2.048 18.432 12.288 17.408 23.552-2.048 10.24-10.24 17.408-20.48 17.408z" fill="#873A18" p-id="5612"></path></svg>