<?xml version="1.0" standalone="no"?><!DOCTYPE svg PUBLIC "-//W3C//DTD SVG 1.1//EN" "http://www.w3.org/Graphics/SVG/1.1/DTD/svg11.dtd"><svg t="1730192783493" class="icon" viewBox="0 0 1024 1024" version="1.1" xmlns="http://www.w3.org/2000/svg" p-id="17255" xmlns:xlink="http://www.w3.org/1999/xlink" width="200" height="200"><path d="M512 0C229.262222 0 0 229.262222 0 512s229.262222 512 512 512 512-229.262222 512-512S794.737778 0 512 0z" fill="#FFCC4D" p-id="17256"></path><path d="M1014.328889 610.986667c6.257778-31.857778 9.671111-65.137778 9.671111-98.986667 0-282.737778-229.262222-512-512-512S0 229.262222 0 512c0 33.848889 3.413333 67.128889 9.671111 98.986667C56.035556 441.173333 263.111111 312.888889 512 312.888889s455.964444 128.284444 502.328889 298.097778z" fill="#BDDDF4" p-id="17257"></path><path d="M327.111111 369.777778C287.857778 369.777778 256 414.435556 256 469.333333s31.857778 99.555556 71.111111 99.555556 71.111111-44.657778 71.111111-99.555556-31.857778-99.555556-71.111111-99.555555zM696.888889 369.777778c-39.253333 0-71.111111 44.657778-71.111111 99.555555s31.857778 99.555556 71.111111 99.555556 71.111111-44.657778 71.111111-99.555556-31.857778-99.555556-71.111111-99.555555zM170.666667 341.333333a28.529778 28.529778 0 0 1-22.755556-45.511111C240.64 172.088889 364.657778 170.666667 369.777778 170.666667c15.644444 0 28.444444 12.8 28.444444 28.444444s-12.8 28.444444-28.444444 28.444445c-4.266667 0-101.262222 2.56-176.355556 102.4-5.688889 7.395556-14.222222 11.377778-22.755555 11.377777z m682.666666 0c-8.533333 0-17.066667-3.982222-22.755555-11.377777C755.484444 229.831111 658.204444 227.555556 653.937778 227.555556c-15.644444-0.284444-28.16-13.084444-28.16-28.444445 0.284444-15.928889 12.8-28.444444 28.444444-28.444444 5.12 0 129.137778 1.422222 221.866667 125.155555A28.529778 28.529778 0 0 1 853.333333 341.333333z m-185.457777 451.697778c1.706667 6.257778-1.137778 12.515556-6.542223 15.928889-2.275556 1.137778-4.835556 1.706667-7.111111 1.706667-3.697778 0-7.111111-1.422222-9.671111-3.982223-1.137778-0.853333-30.435556-24.462222-132.551111-24.462222-103.537778 0-132.266667 24.462222-132.551111 24.462222-4.551111 4.266667-11.662222 4.835556-16.782222 1.706667a14.136889 14.136889 0 0 1-6.826667-15.36c0.568889-1.137778 32.711111-124.586667 156.16-124.586667s155.591111 123.448889 155.875556 124.586667z" fill="#664500" p-id="17258"></path></svg>