<?xml version="1.0" standalone="no"?><!DOCTYPE svg PUBLIC "-//W3C//DTD SVG 1.1//EN" "http://www.w3.org/Graphics/SVG/1.1/DTD/svg11.dtd"><svg t="1730194265706" class="icon" viewBox="0 0 1024 1024" version="1.1" xmlns="http://www.w3.org/2000/svg" p-id="19310" xmlns:xlink="http://www.w3.org/1999/xlink" width="200" height="200"><path d="M512 981.333333C253.866667 981.333333 42.666667 770.133333 42.666667 512S253.866667 42.666667 512 42.666667s469.333333 211.2 469.333333 469.333333-211.2 469.333333-469.333333 469.333333z m0-853.333333C300.8 128 128 300.8 128 512s172.8 384 384 384 384-172.8 384-384S723.2 128 512 128z" p-id="19311"></path><path d="M512 789.333333c-132.266667 0-185.6-104.533333-187.733333-108.8-6.4-12.8-6.4-29.866667 2.133333-40.533333 8.533333-12.8 21.333333-19.2 36.266667-19.2h298.666666c14.933333 0 27.733333 8.533333 36.266667 19.2 8.533333 12.8 8.533333 27.733333 2.133333 40.533333-2.133333 4.266667-55.466667 108.8-187.733333 108.8z m0-85.333333z m170.666667-170.666667c-10.666667 0-21.333333-4.266667-29.866667-12.8l-64-64c-17.066667-17.066667-17.066667-42.666667 0-59.733333l64-64c17.066667-17.066667 42.666667-17.066667 59.733333 0 17.066667 17.066667 17.066667 42.666667 0 59.733333L678.4 426.666667l34.133333 34.133333c17.066667 17.066667 17.066667 42.666667 0 59.733333-8.533333 8.533333-19.2 12.8-29.866666 12.8z m-341.333334 0c-10.666667 0-21.333333-4.266667-29.866666-12.8-17.066667-17.066667-17.066667-42.666667 0-59.733333l34.133333-34.133333-34.133333-34.133334c-17.066667-17.066667-17.066667-42.666667 0-59.733333 17.066667-17.066667 42.666667-17.066667 59.733333 0l64 64c17.066667 17.066667 17.066667 42.666667 0 59.733333l-64 64c-8.533333 8.533333-19.2 12.8-29.866667 12.8z" p-id="19312"></path></svg>