<?xml version="1.0" standalone="no"?><!DOCTYPE svg PUBLIC "-//W3C//DTD SVG 1.1//EN" "http://www.w3.org/Graphics/SVG/1.1/DTD/svg11.dtd"><svg t="1730192674576" class="icon" viewBox="0 0 1024 1024" version="1.1" xmlns="http://www.w3.org/2000/svg" p-id="12014" xmlns:xlink="http://www.w3.org/1999/xlink" width="200" height="200"><path d="M512 0c282.773333 0 512 229.226667 512 512S794.773333 1024 512 1024 0 794.773333 0 512 229.226667 0 512 0z" fill="#FFB400" p-id="12015"></path><path d="M512 512m-490.666667 0a490.666667 490.666667 0 1 0 981.333334 0 490.666667 490.666667 0 1 0-981.333334 0Z" fill="#FFD217" p-id="12016"></path><path d="M42.666667 480a469.333333 458.666667 0 1 0 938.666666 0 469.333333 458.666667 0 1 0-938.666666 0Z" fill="#FFE20D" p-id="12017"></path><path d="M362.666667 106.666667c0 15.253333 28.458667 29.333333 74.666666 36.949333s103.125333 7.616 149.333334 0C632.874667 136 661.333333 121.92 661.333333 106.666667c0-15.253333-28.458667-29.333333-74.666666-36.949334s-103.125333-7.616-149.333334 0C391.125333 77.333333 362.666667 91.413333 362.666667 106.666667z" fill="#FFF1B7" p-id="12018"></path><path d="M298.666667 512m-149.333334 0a149.333333 149.333333 0 1 0 298.666667 0 149.333333 149.333333 0 1 0-298.666667 0Z" fill="#443C25" p-id="12019"></path><path d="M341.333333 490.666667m-64 0a64 64 0 1 0 128 0 64 64 0 1 0-128 0Z" fill="#FFFFFF" p-id="12020"></path><path d="M192 512m-21.333333 0a21.333333 21.333333 0 1 0 42.666666 0 21.333333 21.333333 0 1 0-42.666666 0Z" fill="#FFFFFF" p-id="12021"></path><path d="M245.333333 586.666667m-32 0a32 32 0 1 0 64 0 32 32 0 1 0-64 0Z" fill="#FFFFFF" p-id="12022"></path><path d="M725.333333 512m-149.333333 0a149.333333 149.333333 0 1 0 298.666667 0 149.333333 149.333333 0 1 0-298.666667 0Z" fill="#443C25" p-id="12023"></path><path d="M768 490.666667m-64 0a64 64 0 1 0 128 0 64 64 0 1 0-128 0Z" fill="#FFFFFF" p-id="12024"></path><path d="M618.666667 512m-21.333334 0a21.333333 21.333333 0 1 0 42.666667 0 21.333333 21.333333 0 1 0-42.666667 0Z" fill="#FFFFFF" p-id="12025"></path><path d="M672 586.666667m-32 0a32 32 0 1 0 64 0 32 32 0 1 0-64 0Z" fill="#FFFFFF" p-id="12026"></path><path d="M661.333333 682.666667c0 23.573333 47.765333 42.666667 106.666667 42.666666s106.666667-19.093333 106.666667-42.666666-47.765333-42.666667-106.666667-42.666667-106.666667 19.093333-106.666667 42.666667zM149.333333 682.666667c0 23.573333 47.765333 42.666667 106.666667 42.666666s106.666667-19.093333 106.666667-42.666666-47.765333-42.666667-106.666667-42.666667-106.666667 19.093333-106.666667 42.666667z" fill="#95D4FD" p-id="12027"></path><path d="M583.850667 823.317333a18.624 18.624 0 0 0 26.816 4.416 20.8 20.8 0 0 0 4.373333-28.117333c-52.608-76.245333-167.637333-64.362667-205.589333-1.130667-5.162667 8.554667-6.336 21.056 1.6 28.394667 7.914667 7.338667 23.36 6.826667 27.114666-1.834667 19.2-44.288 109.504-54.186667 145.706667-1.706666zM649.578667 240.832a19.2 19.2 0 0 1 26.922666 3.413333c30.4 39.210667 92.181333 55.765333 187.114667 47.296a19.2 19.2 0 0 1 3.413333 38.250667c-106.602667 9.493333-180.821333-10.389333-220.864-62.037333a19.2 19.2 0 0 1 3.413334-26.922667zM365.098667 240.832a19.2 19.2 0 0 0-26.944 3.413333c-30.4 39.210667-92.181333 55.765333-187.114667 47.296a19.2 19.2 0 0 0-3.413333 38.250667c106.624 9.493333 180.842667-10.389333 220.864-62.037333a19.2 19.2 0 0 0-3.413334-26.922667z" fill="#443C25" p-id="12028"></path></svg>