<?xml version="1.0" standalone="no"?><!DOCTYPE svg PUBLIC "-//W3C//DTD SVG 1.1//EN" "http://www.w3.org/Graphics/SVG/1.1/DTD/svg11.dtd"><svg t="1730192630855" class="icon" viewBox="0 0 1024 1024" version="1.1" xmlns="http://www.w3.org/2000/svg" p-id="11652" xmlns:xlink="http://www.w3.org/1999/xlink" width="200" height="200"><path d="M0 1024V0h1024v1024z m178.619381-134.985017l90.928385 83.046048 8.023093 31.107079c22.94323-10.978969 42.226804-28.151203 62.917938-28.151203 79.386392-1.689072 151.031203-46.027216 231.543643-39.55244a105.848522 105.848522 0 0 0 30.825567-6.474776 431.13567 431.13567 0 0 0 332.747216-456.894021C909.706117 202.829416 674.643574 33.218419 408.19244 84.453608 229.010034 118.938832 81.075464 292.209485 72.348591 474.488522a437.610447 437.610447 0 0 0 80.934708 287.42378 75.445223 75.445223 0 0 1 0 96.558626 85.579656 85.579656 0 0 0-7.741581 25.476838z" fill="#FEFDFC" p-id="11653"></path><path d="M269.547766 972.061031l-90.928385-83.046048c7.460069-22.520962 20.83189-44.901168 21.394915-67.703643a333.873265 333.873265 0 0 1 55.035601-177.774845c18.861306-28.151203 33.077663-67.703643 77.415807-72.067079 20.972646 40.537732-19.987354 72.770859-14.075601 119.361099 54.050309-22.661718 90.506117-62.777182 135.125773-89.098556 16.60921-4.785704 33.640687-8.726873 49.827629-14.075602 43.07134-15.623918 77.838076-3.659656 108.382131 28.151203A122.598488 122.598488 0 0 1 622.563849 774.158076c-26.743643 37.581856-62.777182 68.548179-94.728797 102.470378-17.031478 8.726873-33.359175 18.72055-51.094433 25.75835-33.359175 13.090309-66.859107 32.092371-101.485086 34.766736a189.316838 189.316838 0 0 0-105.707767 34.907491z" fill="#FBD768" p-id="11654"></path><path d="M453.938144 601.731959c-44.619656 26.321375-81.075464 66.436838-135.125773 89.098556-6.334021-46.590241 34.625979-78.823368 14.075602-119.361099-44.338144 4.363436-58.554502 43.352852-77.415808 72.067079a333.873265 333.873265 0 0 0-55.035601 177.774845c0 22.802474-14.075601 45.18268-21.394915 67.703643l-33.499931-5.067217a85.579656 85.579656 0 0 1 7.319313-25.336082 75.445223 75.445223 0 0 0 0-96.558626 437.610447 437.610447 0 0 1-80.51244-287.564536C81.075464 292.209485 229.010034 118.938832 408.19244 84.453608c266.169622-51.094433 501.232165 118.516564 527.131271 387.782818A431.13567 431.13567 0 0 1 602.858007 928.989691a105.848522 105.848522 0 0 1-30.825567 6.052508c-80.51244-6.052509-152.157251 37.581856-231.543643 39.270928-20.268866 0-39.974708 17.876014-62.917938 28.151203l-8.023093-31.107079a189.316838 189.316838 0 0 1 105.707767-35.189004c34.625979-2.674364 68.125911-21.676426 101.485086-34.766735 17.735258-7.037801 34.062955-17.031478 51.094433-25.75835l22.520962 21.394914c5.489485 2.955876 11.823505 9.430653 16.327697 8.304604C676.89567 880.28811 772.187491 830.460481 835.10543 731.931271c103.033402-160.602612 94.588041-330.213608-20.12811-479.978006-10.415945-14.075601-29.699519-20.268866-44.901169-30.121787-10.978969-14.075601-19.002062-32.936907-33.077663-42.226804C591.175258 78.964124 422.268041 78.964124 265.465842 180.44921c-6.052509 3.800412-8.163849 14.075601-12.105017 20.83189v-0.70378c-9.149141 4.081924-20.972646 5.770997-27.165911 12.527285C177.915601 266.028866 132.029141 322.472027 118.235052 394.116838a928.145155 928.145155 0 0 0-11.823506 160.743368A273.770447 273.770447 0 0 0 177.774845 731.931271c4.363436-11.823505 8.445361-23.224742 12.808798-34.485223a424.379381 424.379381 0 0 1 94.447285-143.00811 61.08811 61.08811 0 0 1 63.058694-14.075601c24.069278 6.052509 22.23945 28.151203 22.94323 47.29402a202.547904 202.547904 0 0 0 3.941169 23.365499l34.062955-9.852921z" fill="#D98811" p-id="11655"></path><path d="M453.938144 601.731959l-44.901168-1.40756c30.684811-35.752027 74.600687-43.212096 116.686735-50.672165C608.065979 534.872852 665.635189 605.250859 675.628866 663.805361a177.211821 177.211821 0 0 1-42.226804 154.831615c-25.617595 28.151203-54.754089 52.501993-82.342268 78.541856l-22.520962-21.394914c31.951615-33.922199 67.985155-64.888522 94.728797-102.470378a122.598488 122.598488 0 0 0-10.415945-158.069004c-30.544055-32.373883-65.31079-44.338144-108.382131-28.151203-16.890722 5.911753-33.922199 9.852921-50.531409 14.638626z" fill="#D58A0A" p-id="11656"></path><path d="M550.356014 897.741856c28.151203-26.039863 56.302405-50.672165 82.342268-78.541856a177.211821 177.211821 0 0 0 42.226804-154.831615c-9.289897-59.117526-66.859107-129.495533-149.201375-114.716151-42.226804 7.460069-86.001924 14.920137-116.686735 50.672165l-34.062955 9.852921a202.547904 202.547904 0 0 1-3.941169-23.365499c-0.70378-19.283574 1.126048-41.241512-22.94323-47.29402a61.08811 61.08811 0 0 0-63.058694 14.075601 424.379381 424.379381 0 0 0-94.447285 143.00811c-4.363436 11.260481-8.445361 22.661718-12.808798 34.485223a273.770447 273.770447 0 0 1-71.363299-175.804261A928.145155 928.145155 0 0 1 118.235052 394.116838c14.075601-72.067079 59.68055-128.510241 108.522886-181.434501 6.193265-6.756289 18.01677-8.445361 27.165911-12.527285-9.008385 17.031478-18.579794 33.640687-26.884399 50.953677-9.993677 20.691134 1.266804 28.151203 15.20165 30.403298l63.762474-62.073402c42.226804-7.741581 54.331821 38.285636 84.453608 52.079726 17.735258-24.773058 18.01677-26.884399 6.756289-44.901169-22.098694-35.611271-57.146942-49.123849-102.611134-39.693196L253.360825 201.2811c3.941168-7.178557 6.052509-17.031478 12.105017-20.83189C422.268041 78.964124 591.175258 78.964124 737.420756 179.604674c14.075601 9.712165 22.098694 28.151203 33.077663 42.226804a593.56811 593.56811 0 0 0-51.657457-34.907492c-30.121787-16.60921-58.695258-4.363436-83.468316 12.105017-21.113402 14.075601-41.100756 32.796151-25.617594 73.47464 14.075601-12.527285 25.195326-21.113402 35.048247-30.684811 33.781443-33.359175 69.251959-28.995739 94.306529 11.964261 6.193265 9.852921 12.808797 19.565086 19.565086 29.981031 40.819244-16.890722 9.712165-42.226804 11.401237-62.354914 15.201649 9.852921 34.485223 16.60921 44.901169 30.121787 114.716151 149.764399 123.161512 319.375395 20.12811 479.978006-62.917938 98.52921-158.209759 148.356838-268.421719 174.115189-4.504192 1.548316-10.838213-4.785704-16.327697-7.882336z m300.373333-416.497045c-6.193265-32.233127-5.348729-52.783505-14.075601-68.407423a153.987079 153.987079 0 0 0-140.756014-84.453608 161.72866 161.72866 0 0 0-147.793814 84.453608c-12.386529 20.268866-20.268866 46.871753 0 62.354914a65.592302 65.592302 0 0 0 57.569209 6.052509c61.228866-30.403299 120.205636-27.165911 181.716014-3.096632 14.920137 5.348729 34.907491 1.689072 63.340206 3.096632z m-429.868866 5.770997c42.226804-1.126048 58.97677-26.321375 48.560825-57.991478-18.298282-55.598625-87.127973-101.062818-152.720275-100.781306-68.125911 0-135.548041 42.226804-153.001787 98.52921-4.081924 13.371821-4.504192 35.752027 3.378144 42.226804a73.474639 73.474639 0 0 0 47.294021 10.697457 123.020756 123.020756 0 0 0 38.989416-11.823505 148.497595 148.497595 0 0 1 131.043849 5.911752 221.40921 221.40921 0 0 0 36.455807 13.231066z" fill="#FBD768" p-id="11657"></path><path d="M850.729347 481.244811c-28.151203-1.40756-47.857045 2.252096-63.480962-3.800412-61.510378-24.069278-120.487148-27.025155-181.997526 3.096632a65.592302 65.592302 0 0 1-57.56921-6.052509c-20.268866-15.483162-12.386529-42.226804 0-62.354914a161.72866 161.72866 0 0 1 147.793815-84.453608 153.987079 153.987079 0 0 1 140.756014 84.453608c9.149141 16.327698 8.304605 36.878076 14.497869 69.111203zM728.412371 422.268041l80.230928 28.151203 7.037801-9.430653-40.537732-56.302405c-6.474777 33.359175-23.365498 41.523024-47.294021 38.567147l-2.11134-58.695257c-92.758213-7.319313-152.298007 30.684811-148.919863 84.453608zM420.860481 487.015808a221.40921 221.40921 0 0 1-35.892783-13.231066 148.497595 148.497595 0 0 0-131.606873-5.911752 123.020756 123.020756 0 0 1-39.55244 12.949553 73.474639 73.474639 0 0 1-47.294021-10.697457c-7.882337-7.178557-7.460069-29.558763-3.378144-42.226804 17.453746-56.302405 84.453608-98.52921 153.001787-98.52921 65.592302 0 134.421993 45.18268 152.720275 100.781306 10.978969 30.544055-6.474777 55.739381-47.997801 56.86543z m-227.03945-32.233128a235.907079 235.907079 0 0 1 236.892371 3.659657l6.756289-11.119725L410.30378 394.116838l-42.226804 34.62598L351.890034 368.358488c-81.497732-17.453746-134.703505 10.275189-158.069003 86.424192zM770.076151 221.831478c-1.689072 20.268866 29.418007 45.464192-11.401237 62.354914-6.756289-10.415945-13.371821-20.12811-19.565086-29.981031-25.05457-40.96-60.525086-45.323436-94.306529-11.964261-9.852921 9.571409-20.550378 18.157526-35.048247 30.684811-15.483162-40.678488 4.504192-59.539794 25.617594-73.47464 24.773058-16.468454 53.346529-28.151203 83.468316-12.105017a593.56811 593.56811 0 0 1 51.657457 34.907492z" fill="#894306" p-id="11658"></path><path d="M294.461581 187.346254c45.464192-9.430653 80.51244 4.081924 102.611134 39.693196 11.260481 18.01677 10.978969 20.12811-6.756289 44.901169-29.981031-14.075601-41.523024-59.821306-84.453608-52.079726z" fill="#97490C" p-id="11659"></path><path d="M294.461581 187.346254l11.541993 32.514639L242.2411 281.512027c-14.075601-1.829828-25.195326-9.712165-15.20165-30.403298 8.304605-17.31299 17.876014-33.922199 26.884399-50.953677v0.70378z" fill="#894306" p-id="11660"></path><path d="M728.412371 422.268041L577.099656 448.026392c-3.378144-53.205773 56.302405-91.209897 148.919863-84.453608l1.829828 58.695257z" fill="#FEFDFC" p-id="11661"></path><path d="M727.849347 422.268041c23.928522 2.955876 40.819244-5.207973 47.294021-38.567148l40.537732 56.302406-7.037801 9.430653-80.230928-28.151203zM193.821031 454.78268c23.365498-76.149003 76.571271-103.877938 157.505979-86.424192l16.186942 59.821306 42.226804-34.62598 27.165911 53.768798-6.756289 11.119725a235.907079 235.907079 0 0 0-236.329347-3.659657z" fill="#FEFDFC" p-id="11662"></path></svg>