<?xml version="1.0" standalone="no"?><!DOCTYPE svg PUBLIC "-//W3C//DTD SVG 1.1//EN" "http://www.w3.org/Graphics/SVG/1.1/DTD/svg11.dtd"><svg t="1730192621757" class="icon" viewBox="0 0 1024 1024" version="1.1" xmlns="http://www.w3.org/2000/svg" p-id="11482" xmlns:xlink="http://www.w3.org/1999/xlink" width="200" height="200"><path d="M512 0c282.773333 0 512 229.226667 512 512S794.773333 1024 512 1024 0 794.773333 0 512 229.226667 0 512 0z" fill="#FFB400" p-id="11483"></path><path d="M512 512m-490.666667 0a490.666667 490.666667 0 1 0 981.333334 0 490.666667 490.666667 0 1 0-981.333334 0Z" fill="#FFD217" p-id="11484"></path><path d="M42.666667 480a469.333333 458.666667 0 1 0 938.666666 0 469.333333 458.666667 0 1 0-938.666666 0Z" fill="#FFE20D" p-id="11485"></path><path d="M362.666667 106.666667c0 15.253333 28.458667 29.333333 74.666666 36.949333s103.125333 7.616 149.333334 0C632.874667 136 661.333333 121.92 661.333333 106.666667c0-15.253333-28.458667-29.333333-74.666666-36.949334s-103.125333-7.616-149.333334 0C391.125333 77.333333 362.666667 91.413333 362.666667 106.666667z" fill="#FFF1B7" p-id="11486"></path><path d="M317.141333 534.506667l-72.768-37.269334-26.261333-13.226666-10.24-4.928-1.770667-0.789334c-31.189333-13.930667-50.133333-17.130667-62.762666-5.546666-23.04 21.056-21.44 111.36 9.557333 188.8 42.666667 106.517333 131.712 188.266667 270.528 225.472 138.56 37.12 258.816 9.216 351.210667-63.488a369.536 369.536 0 0 0 61.162666-61.248l6.442667-8.490667c27.904-38.058667 41.088-74.005333 29.056-88.938667-7.701333-9.536-21.845333-14.378667-46.506667-17.578666l-11.242666-1.28-16.938667-1.344-84.650667-5.525334c-78.634667-5.696-144.64-15.274667-213.098666-33.621333-61.013333-16.362667-117.226667-39.04-181.717334-70.997333z" fill="#FFB400" p-id="11487"></path><path d="M493.525333 625.386667c70.058667 18.773333 137.386667 28.565333 217.344 34.346666l114.389334 8.32 11.008 0.917334 10.112 1.066666 4.202666 0.682667 1.941334 0.533333 0.810666 0.426667 0.298667 0.298667 0.149333 0.32-0.021333 0.704-0.128 0.426666c-0.213333 0.725333-0.512 1.642667 0.064 2.837334l0.618667 0.96c4.181333 5.205333-2.517333 23.168-16.917334 45.717333l-5.098666 7.68-5.610667 7.914667-6.144 8.149333c-3.2 4.117333-6.592 8.277333-10.133333 12.458667l-7.317334 8.362666a346.56 346.56 0 0 1-42.453333 39.936c-87.253333 68.650667-200.384 94.912-331.882667 59.669334-131.84-35.328-215.488-112.128-255.701333-212.544-15.253333-38.08-23.04-77.504-23.68-112.384-0.469333-27.84 4.16-49.813333 9.109333-54.336l1.664-1.706667 1.194667-1.066667 0.981333-0.597333 1.173334-0.341333 0.938666-0.085334 1.770667 0.170667 1.450667 0.298667 2.666666 0.789333 6.016 2.282667 8.405334 3.754666 11.349333 5.397334 46.762667 23.36 50.602666 25.642666c71.722667 36.309333 132.928 61.653333 200.064 79.637334z" fill="#894F04" p-id="11488"></path><path d="M167.658667 484.522667l2.666666 0.789333 6.016 2.282667 8.405334 3.754666 11.349333 5.397334 46.762667 23.36 50.602666 25.642666c71.722667 36.309333 132.928 61.653333 200.064 79.637334 70.058667 18.773333 137.386667 28.565333 217.344 34.346666l114.389334 8.32 11.008 0.917334 10.112 1.066666 4.202666 0.682667 1.941334 0.533333 0.810666 0.426667 0.298667 0.298667 0.149333 0.32-0.021333 0.704-0.128 0.426666c-0.213333 0.725333-0.512 1.642667 0.064 2.837334l0.618667 0.96c4.181333 5.205333-2.517333 23.168-16.917334 45.717333l-5.098666 7.68-5.610667 7.914667-2.389333 3.157333c-100.437333 6.826667-222.634667-5.696-350.186667-39.893333-127.829333-34.24-240.128-84.629333-323.754667-140.906667a282.453333 282.453333 0 0 1-0.96-18.709333c-0.490667-27.84 4.138667-49.813333 9.088-54.336l1.664-1.706667 1.194667-1.066667 0.981333-0.597333 1.173334-0.341333 0.938666-0.085334 1.770667 0.170667 1.450667 0.298667z" fill="#FFFFFF" p-id="11489"></path><path d="M388.565333 412.693333L129.962667 860.586667a503.637333 503.637333 0 0 1-101.717334-165.184l212.522667-368.042667 147.797333 85.333333z" fill="#69BDF4" p-id="11490"></path><path d="M388.565333 411.157333L228.693333 688.106667a79.786667 79.786667 0 0 1-113.706666 26.24 91.733333 91.733333 0 0 1-30.357334-117.824l2.218667-4.074667 153.941333-266.624 147.797334 85.333333z" fill="#95D4FD" p-id="11491"></path><path d="M225.216 386.133333a23.168 23.168 0 0 1-31.893333-6.442666 22.656 22.656 0 0 1 5.845333-31.701334c88.448-59.242667 196.416-4.608 232.021333 84.032a22.485333 22.485333 0 0 1-12.672 29.546667 23.338667 23.338667 0 0 1-29.866666-13.226667c-25.728-64.064-102.592-102.976-163.413334-62.208zM847.488 552.853333c5.546667 11.264 19.349333 15.914667 30.848 10.389334 11.498667-5.525333 16.32-19.136 10.794667-30.378667-46.976-95.530667-167.808-102.186667-242.986667-43.242667a22.485333 22.485333 0 0 0-3.776 31.914667 23.338667 23.338667 0 0 0 32.469333 3.498667c54.314667-42.624 140.330667-37.888 172.650667 27.818666z" fill="#443C25" p-id="11492"></path><path d="M512.384 281.173333c-131.072 77.056-134.933333 219.157333-48.789333 324.693334l4.992 6.08 5.376 6.4 10.986666 12.693333c9.237333 10.453333 18.730667 20.693333 28.373334 30.634667l11.669333 11.733333c70.293333 69.376 147.093333 120.042667 198.954667 119.04l0.96-0.064 0.106666 0.725333c0.256 1.792 0.490667 3.690667 0.704 5.696l0.896 10.112 0.789334 12.736 1.898666 35.776 0.576 7.68 0.426667 5.12C738.346667 957.226667 773.546667 1002.666667 864.192 1002.666667c75.52 0 111.210667-66.474667 116.437333-179.989334 3.477333-75.114667-5.76-161.322667-23.552-262.08l-4.330666-23.829333-3.242667-16.789333-3.285333-16.192-3.349334-15.573334a1227.093333 1227.093333 0 0 0-1.706666-7.594666l-3.456-14.72a1009.877333 1009.877333 0 0 0-1.749334-7.104l-3.562666-13.802667-3.626667-13.184a663.061333 663.061333 0 0 0-5.610667-18.624l-3.84-11.626667-1.92-5.568-3.968-10.666666-2.005333-5.12-4.074667-9.685334c-21.290667-48.512-46.08-70.954667-75.733333-63.829333l-3.456 0.938667c-25.877333 7.829333-36.992 30.378667-34.602667 65.898666l0.512 5.781334-1.749333-2.176c-94.357333-116.821333-188.245333-149.888-279.914667-95.978667z" fill="#D38218" p-id="11493"></path><path d="M805.674667 430.4c6.890667 9.856 22.293333 2.432 18.837333-9.066667-17.642667-58.794667-12.245333-88.277333 11.946667-94.08 15.850667-3.84 31.914667 11.392 47.317333 43.669334l3.690667 8.064 3.648 8.746666 1.834666 4.586667 3.605334 9.685333 1.792 5.077334 3.541333 10.645333 1.770667 5.546667 3.498666 11.562666 3.434667 12.202667 3.413333 12.8 3.349334 13.397333 3.306666 13.994667 3.242667 14.592 3.2 15.189333 3.114667 15.744 3.072 16.341334c19.328 105.834667 29.525333 195.626667 25.984 272.469333-4.778667 103.616-34.944 159.786667-95.232 159.786667-75.989333 0-104.256-34.261333-112.192-107.861334l-0.810667-8.533333-0.490667-6.272-0.917333-15.082667-1.450667-28.416-0.874666-12.416-0.661334-6.933333-0.768-6.186667-0.917333-5.674666-1.088-5.482667a10.602667 10.602667 0 0 0-12.373333-8.128c-28.010667 5.461333-71.36-14.592-118.08-48.981333l-10.837334-8.170667a742.464 742.464 0 0 1-81.749333-74.496l-10.517333-11.264a823.573333 823.573333 0 0 1-5.205334-5.717333l-10.24-11.584a792.533333 792.533333 0 0 1-14.848-17.706667c-78.72-96.448-75.264-223.488 43.093334-293.077333 90.026667-52.970667 183.424-10.752 282.56 131.029333z" fill="#FFD217" p-id="11494"></path><path d="M805.674667 430.4c6.890667 9.856 22.293333 2.432 18.837333-9.066667a322.197333 322.197333 0 0 1-6.464-24.789333c2.986667 4.096 5.973333 8.256 8.96 12.522667 6.890667 9.856 22.293333 2.432 18.837333-9.066667-10.026667-33.450667-12.608-57.429333-8.533333-72.938667l-0.853333 0.170667c15.850667-3.797333 31.914667 11.413333 47.317333 43.690667l3.690667 8.064 4.565333 11.008 4.522667 12.010666 1.792 5.077334 3.541333 10.645333 1.770667 5.546667 3.498666 11.562666 3.434667 12.202667 3.413333 12.8 3.349334 13.397333 3.306666 13.994667 3.242667 14.592 3.2 15.189333 3.114667 15.744 3.072 16.341334c19.328 105.834667 29.525333 195.626667 25.984 272.469333-2.645333 56.96-12.928 99.584-31.701334 126.421333-11.946667 7.978667-25.984 12.032-42.197333 12.032-75.989333 0-104.256-34.261333-112.192-107.861333l-0.810667-8.533333-0.490666-6.272-0.917334-15.082667-1.450666-28.416-0.874667-12.416-0.661333-6.933333-0.768-6.186667-0.917334-5.674667-1.088-5.482666a10.602667 10.602667 0 0 0-12.373333-8.128c-28.010667 5.461333-71.36-14.592-118.08-48.981334l-10.837333-8.170666a742.464 742.464 0 0 1-81.749334-74.496l-13.12-14.122667-12.821333-14.442667a792.533333 792.533333 0 0 1-14.869333-17.706666c-63.637333-77.973333-73.578667-175.893333-12.544-247.338667a233.386667 233.386667 0 0 1 34.304-24.405333c90.026667-52.970667 183.424-10.752 282.56 131.029333z" fill="#FFE20D" p-id="11495"></path></svg>