<?xml version="1.0" standalone="no"?><!DOCTYPE svg PUBLIC "-//W3C//DTD SVG 1.1//EN" "http://www.w3.org/Graphics/SVG/1.1/DTD/svg11.dtd"><svg t="1730192755993" class="icon" viewBox="0 0 1024 1024" version="1.1" xmlns="http://www.w3.org/2000/svg" p-id="15795" xmlns:xlink="http://www.w3.org/1999/xlink" width="200" height="200"><path d="M80.9 447.4a430.4 430.4 0 1 0 860.8 0 430.4 430.4 0 1 0-860.8 0z" fill="#F2CF3D" p-id="15796"></path><path d="M511.3 887.8c-59.4 0-117.1-11.6-171.4-34.6-52.4-22.2-99.5-53.9-140-94.4-40.4-40.4-72.2-87.5-94.4-140-23-54.3-34.6-112-34.6-171.4 0-59.4 11.6-117.1 34.6-171.4 22.2-52.4 53.9-99.5 94.4-140 40.4-40.4 87.5-72.2 140-94.4C394.2 18.6 451.9 7 511.3 7c59.4 0 117.1 11.6 171.4 34.6 52.4 22.2 99.5 53.9 140 94.4 40.4 40.4 72.2 87.5 94.4 140 23 54.3 34.6 112 34.6 171.4 0 59.4-11.6 117.1-34.6 171.4-22.2 52.4-53.9 99.5-94.4 140s-87.5 72.2-140 94.4c-54.2 22.9-111.9 34.6-171.4 34.6z m0-860.8c-56.8 0-111.8 11.1-163.6 33-50.1 21.2-95 51.5-133.6 90.1-38.6 38.6-68.9 83.6-90.1 133.6-21.9 51.8-33 106.9-33 163.6s11.1 111.8 33 163.6c21.2 50.1 51.5 95 90.1 133.6 38.6 38.6 83.6 68.9 133.6 90.1 51.8 21.9 106.9 33 163.6 33 56.8 0 111.8-11.1 163.6-33 50.1-21.2 95-51.5 133.6-90.1 38.6-38.6 68.9-83.6 90.1-133.6 21.9-51.8 33-106.9 33-163.6s-11.1-111.8-33-163.6c-21.2-50.1-51.5-95-90.1-133.6C770 111.5 725 81.2 675 60c-51.9-21.9-106.9-33-163.7-33z" fill="#231815" p-id="15797"></path><path d="M115.4 412.9a395.9 395.9 0 1 0 791.8 0 395.9 395.9 0 1 0-791.8 0z" fill="#FFE20D" p-id="15798"></path><path d="M511.3 887.8c-59.4 0-117.1-11.6-171.4-34.6-52.4-22.2-99.5-53.9-140-94.4-40.4-40.4-72.2-87.5-94.4-140-23-54.3-34.6-112-34.6-171.4 0-59.4 11.6-117.1 34.6-171.4 22.2-52.4 53.9-99.5 94.4-140 40.4-40.4 87.5-72.2 140-94.4C394.2 18.6 451.9 7 511.3 7c59.4 0 117.1 11.6 171.4 34.6 52.4 22.2 99.5 53.9 140 94.4 40.4 40.4 72.2 87.5 94.4 140 23 54.3 34.6 112 34.6 171.4 0 59.4-11.6 117.1-34.6 171.4-22.2 52.4-53.9 99.5-94.4 140s-87.5 72.2-140 94.4c-54.2 22.9-111.9 34.6-171.4 34.6z m0-860.8c-56.8 0-111.8 11.1-163.6 33-50.1 21.2-95 51.5-133.6 90.1-38.6 38.6-68.9 83.6-90.1 133.6-21.9 51.8-33 106.9-33 163.6s11.1 111.8 33 163.6c21.2 50.1 51.5 95 90.1 133.6 38.6 38.6 83.6 68.9 133.6 90.1 51.8 21.9 106.9 33 163.6 33 56.8 0 111.8-11.1 163.6-33 50.1-21.2 95-51.5 133.6-90.1 38.6-38.6 68.9-83.6 90.1-133.6 21.9-51.8 33-106.9 33-163.6s-11.1-111.8-33-163.6c-21.2-50.1-51.5-95-90.1-133.6C770 111.5 725 81.2 675 60c-51.9-21.9-106.9-33-163.7-33z" fill="#231815" p-id="15799"></path><path d="M374.6 120.5a136.7 44.2 0 1 0 273.4 0 136.7 44.2 0 1 0-273.4 0z" fill="#FFF0B3" p-id="15800"></path><path d="M273.5 425.8a35.6 35.6 0 1 0 71.2 0 35.6 35.6 0 1 0-71.2 0zM678 425.8a35.6 35.6 0 1 0 71.2 0 35.6 35.6 0 1 0-71.2 0z" fill="#231815" p-id="15801"></path><path d="M224.5 554.2a51 31.6 0 1 0 102 0 51 31.6 0 1 0-102 0zM696.2 554.2a51 31.6 0 1 0 102 0 51 31.6 0 1 0-102 0z" fill="#FFA178" p-id="15802"></path><path d="M175.3 973.6a336 34.4 0 1 0 672 0 336 34.4 0 1 0-672 0z" fill="#E5E5E5" p-id="15803"></path><path d="M599.7 671.4H423c-5.5 0-10-4.5-10-10s4.5-10 10-10h176.7c5.5 0 10 4.5 10 10s-4.5 10-10 10z" fill="#231815" p-id="15804"></path></svg>