<?xml version="1.0" standalone="no"?><!DOCTYPE svg PUBLIC "-//W3C//DTD SVG 1.1//EN" "http://www.w3.org/Graphics/SVG/1.1/DTD/svg11.dtd"><svg t="1730192589183" class="icon" viewBox="0 0 1108 1024" version="1.1" xmlns="http://www.w3.org/2000/svg" p-id="8891" xmlns:xlink="http://www.w3.org/1999/xlink" width="216.40625" height="200"><path d="M632.022516 75.059799a65.462153 65.462153 0 0 1-30.023919 30.023919c-81.434878-16.192901-161.498663-12.860246-240.191357 10.007974l-20.015946-30.02392c95.225865-35.99868 191.962934-39.331335 290.231222-10.007973z" fill="#DD8606" opacity=".867" p-id="8892"></path><path d="M762.126168 135.107638v30.02392a4150.356519 4150.356519 0 0 1-90.071759-60.04784c-12.399879 4.423524-22.407852 11.10885-30.02392 20.015947-11.709329 17.794176-28.382612 27.80215-50.039866 30.023919a206.934862 206.934862 0 0 1 10.007974-50.039866 65.462153 65.462153 0 0 0 30.023919-30.023919c62.749992-20.316186 106.11454-0.300239 130.103652 60.047839z" fill="#8C3501" opacity=".964" p-id="8893"></path><path d="M341.791294 85.067772l20.015946 30.02392c7.345852 12.089632 10.678507 25.43026 10.007973 40.031892-18.81499 2.702153-32.155618-3.963157-40.031892-20.015946-15.11204-19.425476-35.127986-24.429463-60.047839-15.01196a256.76456 256.76456 0 0 1-70.055813 55.043853c-5.884688-59.557448 22.4679-96.256686 85.067772-110.087705a533.324891 533.324891 0 0 1 55.043853 20.015946z" fill="#8C3500" opacity=".975" p-id="8894"></path><path d="M331.783321 135.107638c-49.489427 17.574001-92.853975 45.936597-130.103652 85.067772 2.281818 3.993181 5.624481 5.654505 10.007973 5.003987a704.411193 704.411193 0 0 0-70.055812 30.023919c10.308212-33.927029 30.324159-60.618294 60.047839-80.063785a256.76456 256.76456 0 0 0 70.055813-55.043853c24.919853-9.417503 44.9358-4.413516 60.047839 15.01196z" fill="#D98205" opacity=".931" p-id="8895"></path><path d="M601.998597 105.083718a206.934862 206.934862 0 0 0-10.007974 50.039866c21.657254-2.22177 38.330537-12.229743 50.039866-30.023919 55.113908 21.787358 101.821119 55.143932 140.111625 100.079732-50.149954-1.661324-100.18982 0-150.119598 5.003986-56.274833 14.541585-89.631408 49.569491-100.079732 105.083719-25.680459-8.857056-49.039069-8.857056-70.055812 0 2.552033-39.951829-14.12125-68.314425-50.039866-85.067772-64.471363-22.668059-131.19452-31.014709-200.159464-25.019933-4.383492 0.650518-7.726155-1.010805-10.007973-5.003987 37.249676-39.131175 80.614224-67.493771 130.103652-85.067772 7.876275 16.052789 21.216903 22.718099 40.031892 20.015946 0.670534-14.601633-2.662121-27.942261-10.007973-40.031892 78.692693-22.868219 158.756479-26.200874 240.191357-10.007974z" fill="#FCDE7C" p-id="8896"></path><path d="M762.126168 135.107638a9783.914681 9783.914681 0 0 0 70.055812 100.079732 206.934862 206.934862 0 0 0-50.039866-10.007973c-38.290505-44.9358-84.997716-78.292374-140.111625-100.079732 7.616068-8.907096 17.624041-15.592422 30.02392-20.015947a4150.356519 4150.356519 0 0 0 90.071759 60.04784v-30.02392z" fill="#D98201" opacity=".936" p-id="8897"></path><path d="M211.687642 225.179397c68.964943-5.994776 135.6881 2.351874 200.159464 25.019933 35.918616 16.753347 52.591899 45.115943 50.039866 85.067772-6.084848 24.919853-22.768139 38.270489-50.039866 40.031892-23.528745-6.735366-46.877346-13.410684-70.055812-20.015946-14.651673-6.605262-31.324956-9.937917-50.039866-10.007973a3113.52049 3113.52049 0 0 0-170.135544 30.023919l-30.02392-20.015946c-16.042781-47.988231 0.630502-81.344806 50.039866-100.079732a704.411193 704.411193 0 0 1 70.055812-30.023919z" fill="#903E0F" opacity=".996" p-id="8898"></path><path d="M782.142114 225.179397c17.173682 1.291029 33.856973 4.623684 50.039866 10.007973 68.164305 19.595611 91.522915 62.960159 70.055812 130.103651l-40.031893 10.007973a379.742535 379.742535 0 0 1-80.063785-25.019933c-31.99549-8.04641-62.01941-6.385087-90.071759 5.003987-36.879381 5.044018-73.568611 11.709329-110.087705 20.015946-28.792939 1.190949-45.47623-12.149679-50.039866-40.031892 10.448324-55.514227 43.804899-90.542133 100.079732-105.083719 49.929778-5.003987 99.969644-6.66531 150.119598-5.003986z" fill="#903D0D" opacity=".994" p-id="8899"></path><path d="M201.679669 255.203316c68.964943-5.994776 135.6881 2.351874 200.159464 25.019933 35.658408 22.337796 37.32974 44.015066 5.003987 65.051826-59.137114-30.103983-120.846276-36.769293-185.147504-20.015947a262.809376 262.809376 0 0 1-55.043853-30.023919c-24.269335 7.616068-37.609963 24.299359-40.031893 50.039866-6.675318-13.340628-6.675318-26.691264 0-40.031893 21.717302-23.248522 46.737235-39.931813 75.059799-50.039866z" fill="#FAF6F4" p-id="8900"></path><path d="M642.030489 255.203316a741.320598 741.320598 0 0 1 190.151491 15.01196c23.478705 10.138077 40.161996 26.821368 50.039866 50.039866-1.671332 15.01196-10.007973 23.348601-25.019933 25.019933-63.070247-28.322564-128.122073-34.997882-195.155477-20.015947-42.46383-45.256055-72.48775-38.580737-90.071759 20.015947-10.688515-16.893459-9.017184-33.566742 5.003987-50.039866 20.966704-16.262956 42.643974-29.603585 65.051825-40.031893z" fill="#F9F3F0" p-id="8901"></path><path d="M692.070355 355.283048c28.052349-11.389073 58.076268-13.050397 90.071759-5.003987a379.742535 379.742535 0 0 0 80.063785 25.019933c13.070413 61.048636 13.070413 121.096476 0 180.143518a3996.073605 3996.073605 0 0 1-60.047839 30.023919 206.934862 206.934862 0 0 0 10.007974-50.039866h10.007973c9.587638-4.533612 17.934288-11.20893 25.019933-20.015946a252.691315 252.691315 0 0 0 0-100.079732c-48.058287-51.711197-98.098153-51.711197-150.119598 0-20.636441 41.703224-17.303786 81.735117 10.007973 120.095678 12.64007 21.086799 30.994693 31.094773 55.043853 30.02392 0.980781 20.546369-5.694537 37.22966-20.015947 50.039866v-20.015947c0-13.340628-6.675318-20.015946-20.015946-20.015946a301.630304 301.630304 0 0 1-35.027906-30.023919A608.614873 608.614873 0 0 0 652.038463 430.342847c18.484726-32.615985 45.165983-55.964586 80.063785-70.055812a84.407246 84.407246 0 0 0-40.031893-5.003987z" fill="#FACF5F" p-id="8902"></path><path d="M341.791294 355.283048a409.68639 409.68639 0 0 0-90.071759 5.003987c71.156689 31.99549 89.501304 83.706688 55.043853 155.123584-21.156855 26.22089-46.176788 46.236836-75.059799 60.047839-8.386682-3.422727-11.729345-10.088037-10.007973-20.015946a1242.349759 1242.349759 0 0 1 40.031892-40.031893c24.859805-66.993372 1.501196-103.682602-70.055812-110.087705-45.816501 13.690907-60.828461 43.714827-45.035879 90.071759 3.773006 14.431497 12.109648 24.439471 25.019933 30.023919a543.282824 543.282824 0 0 1 20.015946 70.055812l-70.055812-40.031892c-13.070413-59.047042-13.070413-119.094881 0-180.143518a3113.52049 3113.52049 0 0 1 170.135544-30.023919c18.71491 0.070056 35.388193 3.402711 50.039866 10.007973z" fill="#FBCC65" p-id="8903"></path><path d="M71.576018 425.33886a612.988358 612.988358 0 0 0 10.007973 130.103652c-28.672843-42.633966-32.005498-85.998514-10.007973-130.103652z" fill="#FFDA5A" opacity=".082" p-id="8904"></path><path d="M531.942784 335.267102c4.563636 27.882213 21.246927 41.222842 50.039866 40.031892 36.519094-8.306618 73.208324-14.971928 110.087705-20.015946a84.407246 84.407246 0 0 1 40.031893 5.003987c-34.897802 14.091226-61.579059 37.439828-80.063785 70.055812A608.614873 608.614873 0 0 1 687.066369 545.434539a301.630304 301.630304 0 0 0 35.027906 30.023919c-59.047042 1.040829-85.738306-25.650435-80.063786-80.063785-15.262159 28.552747-36.939429 38.560721-65.051825 30.023919-53.372521 26.691264-106.75505 26.691264-160.127571 0-31.194852 9.007176-56.214785-1.000797-75.059799-30.023919a709.365139 709.365139 0 0 1-100.079732 100.079731c-8.386682-3.422727-11.729345-10.088037-10.007973-20.015946 28.883011-13.811003 53.902944-33.826949 75.059799-60.047839 34.457452-71.416897 16.112837-123.128094-55.043853-155.123584a409.68639 409.68639 0 0 1 90.071759-5.003987c23.178466 6.605262 46.527067 13.28058 70.055812 20.015946 27.271727-1.761403 43.955018-15.11204 50.039866-40.031892 21.016744-8.857056 44.375353-8.857056 70.055812 0z" fill="#FEDC64" p-id="8905"></path><path d="M912.245765 425.33886c21.997525 44.105138 18.66487 87.469686-10.007973 130.103652 4.273405-43.274476 7.60606-86.649032 10.007973-130.103652z" fill="#FCD355" opacity=".082" p-id="8906"></path><path d="M91.591964 355.283048l30.02392 20.015946c-13.070413 61.048636-13.070413 121.096476 0 180.143518 46.236836 190.892081 168.003846 290.971812 365.291021 300.239195 201.380436-6.274999 326.480101-106.354731 375.298994-300.239195 13.070413-59.047042 13.070413-119.094881 0-180.143518l40.031893-10.007973c0.170136 20.666465 3.502791 40.682411 10.007973 60.047839-2.401914 43.45462-5.734569 86.829175-10.007973 130.103652-51.991421 214.610977-188.77039 328.041345-410.3269 340.271088-221.55651-12.229743-358.33548-125.660111-410.326901-340.271088a612.988358 612.988358 0 0 1-10.007973-130.103652 543.232784 543.232784 0 0 1 20.015946-70.055812z" fill="#DF8B0B" opacity=".902" p-id="8907"></path><path d="M812.166034 535.426565a206.934862 206.934862 0 0 1-10.007974 50.039866c-85.017732 160.347746-218.464047 222.066917-400.318927 185.147504-96.38679-28.102389-166.442602-86.478896-210.167437-175.139531a543.282824 543.282824 0 0 0-20.015946-70.055812v-30.023919h40.031892c-2.952352 22.36782 0.390311 42.383766 10.007974 60.047839-1.721371 9.927909 1.621292 16.59322 10.007973 20.015946-1.721371 9.927909 1.621292 16.59322 10.007973 20.015946-1.721371 9.927909 1.621292 16.59322 10.007973 20.015947 75.149871 107.515656 178.562258 149.21888 310.247169 125.099665 76.130652-19.625635 136.178491-61.32886 180.143517-125.099665 14.32141-12.810206 20.996728-29.493497 20.015947-50.039866 8.386682-3.422727 11.729345-10.088037 10.007973-20.015946a143.454288 143.454288 0 0 1 30.023919-60.04784c9.52759 15.462319 12.860246 32.14561 10.007974 50.039866z" fill="#8F3B03" p-id="8908"></path><path d="M822.174007 535.426565c35.538313-61.448955 20.526353-104.823511-45.03588-130.103651-60.948557 17.834208-80.964503 57.866101-60.047839 120.095678a181.804841 181.804841 0 0 0 55.043853 20.015947c1.721371 9.927909-1.621292 16.59322-10.007973 20.015946-24.04916 1.070853-42.403782-8.93712-55.043853-30.02392-27.311759-38.360561-30.644414-78.392454-10.007973-120.095678 52.021445-51.711197 102.061311-51.711197 150.119598 0a252.691315 252.691315 0 0 1 0 100.079732c-7.085645 8.807016-15.432295 15.482335-25.019933 20.015946z" fill="#FECC6F" p-id="8909"></path><path d="M822.174007 535.426565h-10.007973c2.852272-17.894256-0.480383-34.577547-10.007974-50.039866a143.454288 143.454288 0 0 0-30.023919 60.04784 181.804841 181.804841 0 0 1-55.043853-20.015947c-20.916664-62.229577-0.900718-102.26147 60.047839-120.095678 65.562232 25.28014 80.574192 68.654696 45.03588 130.103651z" fill="#FCC078" p-id="8910"></path><path d="M221.695616 555.442512c-9.617662-17.664073-12.960325-37.680019-10.007974-60.047839h-40.031892v30.023919c-12.910285-5.584449-21.246927-15.592422-25.019933-30.023919-15.792582-46.356932-0.780622-76.380851 45.035879-90.071759 71.557008 6.405103 94.915618 43.094333 70.055812 110.087705a1242.349759 1242.349759 0 0 0-40.031892 40.031893z" fill="#FEC27A" p-id="8911"></path><path d="M722.094275 575.458458c13.340628 0 20.015946 6.675318 20.015946 20.015946a1614.886553 1614.886553 0 0 1-220.17541 50.039866 291.572291 291.572291 0 0 0-70.055812 0c-18.034368-15.352231-36.378983-18.694894-55.043853-10.007973-26.421049-4.033213-49.779659-14.041186-70.055812-30.023919-13.961123 13.160485-23.969096 9.817822-30.023919-10.007974-7.415908 11.409089-15.762558 11.409089-25.019933 0-10.228149 3.55283-16.903467 10.228149-20.015947 20.015947-8.386682-3.422727-11.729345-10.088037-10.007973-20.015947a709.365139 709.365139 0 0 0 100.079732-100.079731c18.845014 29.023122 43.864946 39.031095 75.059799 30.023919 53.372521 26.691264 106.75505 26.691264 160.127571 0 28.112397 8.536801 49.789667-1.471172 65.051825-30.023919-5.674521 54.41335 21.016744 81.104615 80.063786 80.063785z" fill="#FEDA56" p-id="8912"></path><path d="M121.615884 555.442512l70.055812 40.031892c43.724835 88.660634 113.780647 147.037142 210.167437 175.139531 181.854881 36.919413 315.301195-24.799758 400.318927-185.147504 19.845811-9.707734 39.861757-19.715707 60.047839-30.023919-48.818893 193.884465-173.918558 293.964196-375.298994 300.239195-197.287175-9.267383-319.054185-109.347115-365.291021-300.239195z" fill="#FBD13E" p-id="8913"></path><path d="M742.110221 595.474404v20.015947c-43.965026 63.770805-104.012865 105.474029-180.143517 125.099665-131.684911 24.119215-235.097298-17.584009-310.247169-125.099665 3.11248-9.787798 9.787798-16.463116 20.015947-20.015947 9.257375 11.409089 17.604025 11.409089 25.019933 0 6.054824 19.825795 16.062797 23.168458 30.023919 10.007974 20.276154 15.982733 43.634763 25.990706 70.055812 30.023919 18.66487-8.686921 37.009485-5.344258 55.043853 10.007973a291.572291 291.572291 0 0 1 70.055812 0 1614.886553 1614.886553 0 0 0 220.17541-50.039866z" fill="#FDD64B" p-id="8914"></path></svg>