<?xml version="1.0" standalone="no"?><!DOCTYPE svg PUBLIC "-//W3C//DTD SVG 1.1//EN" "http://www.w3.org/Graphics/SVG/1.1/DTD/svg11.dtd"><svg t="1730192686836" class="icon" viewBox="0 0 1036 1024" version="1.1" xmlns="http://www.w3.org/2000/svg" p-id="12185" xmlns:xlink="http://www.w3.org/1999/xlink" width="202.34375" height="200"><path d="M518.438639 512m-512 0a512 512 0 1 0 1024 0 512 512 0 1 0-1024 0Z" fill="#F8C332" p-id="12186"></path><path d="M486.059759 512c-22.193493-54.811307-80.479573-93.92128-148.8896-93.92128S210.474052 457.188693 188.253252 512c41.14432-18.78016 92.842667-29.96224 148.916907-29.96224S444.942746 493.21984 486.093892 512" fill="#603813" p-id="12187"></path><path d="M877.439386 588.110507c-102.161067 29.61408-225.846613 46.94016-359.082667 46.94016s-256.79872-17.3056-358.925653-46.87872c18.71872 186.026667 172.264107 331.093333 358.898346 331.093333 186.81856 0 340.48-145.36704 358.95296-331.65312" fill="#754C24" p-id="12188"></path><path d="M217.184666 638.409387c44.9536 63.863467 162.863787 109.44512 301.253973 109.44512s256.300373-45.581653 301.247147-109.44512c-83.237547 21.886293-187.733333 34.911573-301.253974 34.911573s-218.016427-13.02528-301.2608-34.911573" fill="#FCFCFC" p-id="12189"></path><path d="M249.112986 796.357973c-33.4848 67.106133-113.09056 95.320747-177.800534 63.023787s-90.0096-112.872107-56.5248-179.971413z" fill="#73C3FF" p-id="12190"></path><path d="M267.039812 467.217067L14.787652 679.410347l234.325334 116.947626 17.926826-329.140906z" fill="#73C3FF" p-id="12191"></path><path d="M850.378479 512c-22.2208-54.811307-80.50688-93.92128-148.916907-93.92128S574.765466 457.188693 552.544666 512c41.151147-18.78016 92.842667-29.96224 148.923733-29.96224s107.76576 11.18208 148.91008 29.96224" fill="#603813" p-id="12192"></path><path d="M346.154052 305.431893c-42.14784-15.13472-98.003627-0.150187-139.564373 41.424214S150.058052 444.29312 165.206426 486.434133c15.182507-34.816 40.727893-72.062293 74.81344-106.154666s71.325013-59.65824 106.141013-74.847574M690.723226 310.524587c42.141013-15.13472 98.003627-0.14336 139.564373 41.43104s56.531627 97.430187 41.383253 139.5712c-15.189333-34.816-40.73472-72.062293-74.820266-106.161494s-71.325013-59.65824-106.134187-74.847573" fill="#865A07" p-id="12193"></path><path d="M786.835866 804.864c34.583893 69.290667 115.07712 99.280213 179.780266 66.983253s89.12896-114.64704 54.545067-183.937706zM764.505839 466.875733l256.65536 221.026987-234.325333 116.954453-22.330027-337.98144z" fill="#73C3FF" p-id="12194"></path></svg>