<?xml version="1.0" standalone="no"?><!DOCTYPE svg PUBLIC "-//W3C//DTD SVG 1.1//EN" "http://www.w3.org/Graphics/SVG/1.1/DTD/svg11.dtd"><svg t="1730192746727" class="icon" viewBox="0 0 1024 1024" version="1.1" xmlns="http://www.w3.org/2000/svg" p-id="15615" xmlns:xlink="http://www.w3.org/1999/xlink" width="200" height="200"><path d="M170.24 215.893333C309.013333 32.533333 603.52 2.24 781.973333 144.533333c-5.76 2.133333-17.28 6.4-23.04 8.426667C619.52 53.44 418.453333 53.333333 276.266667 147.626667c-26.986667 15.253333-50.026667 36.8-64.32 64.533333l-5.013334 1.92c-9.173333 0.426667-27.52 1.386667-36.693333 1.813333z" fill="#EEA951" p-id="15616"></path><path d="M276.266667 147.626667c142.186667-94.293333 343.253333-94.186667 482.666666 5.333333l-8.533333 3.413333c-36.266667 8.533333-57.6 40.64-86.613333 60.8-29.12 20.053333-73.813333 14.08-92.373334 48.746667-59.306667 20.693333-123.733333 17.706667-185.706666 18.986667-47.68-43.413333-107.626667-75.306667-173.76-72.746667 14.293333-27.733333 37.333333-49.28 64.32-64.533333z" fill="#BEAF6F" p-id="15617"></path><path d="M781.973333 144.533333c32.32-2.133333 108.8 16.853333 66.24 59.093334-6.4-0.32-19.2-0.746667-25.6-1.066667-5.546667-2.986667-16.64-9.173333-22.186666-12.16-17.173333-10.666667-33.6-22.4-50.026667-34.026667l8.533333-3.413333c5.76-2.026667 17.28-6.293333 23.04-8.426667z" fill="#A63F0F" p-id="15618"></path><path d="M663.786667 217.173333c29.013333-20.16 50.346667-52.266667 86.613333-60.8 16.426667 11.626667 32.853333 23.36 50.026667 34.026667-69.12-12.373333-102.4 61.44-157.333334 87.786667-23.893333-4.266667-47.786667-8.213333-71.68-12.266667 18.56-34.666667 63.253333-28.693333 92.373334-48.746667z" fill="#875239" p-id="15619"></path><path d="M643.093333 278.186667c54.933333-26.346667 88.213333-100.16 157.333334-87.786667 5.546667 2.986667 16.64 9.173333 22.186666 12.16 63.466667 67.2 115.306667 153.386667 118.293334 247.786667-45.973333-33.173333-84.586667-76.48-136.106667-101.866667-51.093333-29.973333-110.72-40.32-161.706667-70.293333z" fill="#BEAF6F" p-id="15620"></path><path d="M822.613333 202.56c6.4 0.32 19.2 0.746667 25.6 1.066667 90.986667 90.56 131.733333 224.853333 120 351.573333-14.08 216.746667-205.866667 405.44-423.36 413.866667-154.346667 13.546667-310.506667-59.946667-400.533333-185.6-109.866667-146.56-121.066667-368.533333-11.733333-517.76 4.586667 1.173333 13.866667 3.413333 18.453333 4.48-43.2 69.44-74.133333 149.333333-69.76 232.32-3.733333 22.826667-2.773333 45.973333 3.52 68.266666 25.493333 161.386667 141.866667 308.693333 301.76 353.173334 198.186667 70.826667 435.093333-41.6 517.546667-232.64 24.96-55.68 40.533333-116.373333 43.626666-177.28-1.493333-21.333333-4.266667-42.453333-6.826666-63.68-2.986667-94.4-54.826667-180.586667-118.293334-247.786667z" fill="#EEA951" p-id="15621"></path><path d="M132.586667 265.706667c-38.826667-27.733333 7.466667-52.053333 37.653333-49.813334 9.173333-0.426667 27.52-1.386667 36.693333-1.813333-11.093333 14.613333-22.08 29.333333-33.92 43.306667-5.546667 3.2-16.533333 9.6-21.973333 12.8-4.586667-1.066667-13.866667-3.306667-18.453333-4.48z" fill="#A63F0F" p-id="15622"></path><path d="M206.933333 214.08l5.013334-1.92c66.133333-2.56 126.08 29.333333 173.76 72.746667-10.986667 21.226667-32.853333 26.56-51.626667 10.986666-44.16-38.933333-103.893333-53.973333-161.066667-38.506666 11.84-13.973333 22.826667-28.693333 33.92-43.306667z" fill="#875239" p-id="15623"></path><path d="M151.04 270.186667c5.44-3.2 16.426667-9.6 21.973333-12.8 57.173333-15.466667 116.906667-0.426667 161.066667 38.506666-36.8 35.306667-78.506667 68.693333-131.306667 73.92 23.573333 2.133333 47.253333 0.853333 70.613334-2.773333 37.546667 4.906667 80.32-6.08 113.813333 15.146667-26.346667 0.853333-52.8 1.813333-79.146667 1.706666-46.293333-2.453333-92.8-6.293333-138.986666-0.64-0.106667 5.653333-0.213333 17.066667-0.213334 22.72 33.28 2.133333 66.773333 2.773333 99.733334 8.533334-0.106667 15.68 0.106667 31.36 0.533333 47.04-9.066667-29.333333-29.866667-51.626667-62.826667-43.52-63.68-13.12-76.16 64.533333-125.013333 84.48-4.373333-82.986667 26.56-162.88 69.76-232.32z" fill="#C09A6C" p-id="15624"></path><path d="M385.706667 284.906667c61.973333-1.28 126.4 1.706667 185.706666-18.986667 23.893333 4.053333 47.786667 8 71.68 12.266667 50.986667 29.973333 110.613333 40.32 161.706667 70.293333 51.52 25.386667 90.133333 68.693333 136.106667 101.866667 2.56 21.226667 5.333333 42.346667 6.826666 63.68-29.12-70.506667-107.413333-96.64-168-133.226667-81.813333-32.213333-167.573333-62.613333-257.066666-54.293333-86.72-8.64-163.413333 38.933333-249.28 40.533333-23.36 3.626667-47.04 4.906667-70.613334 2.773333 52.8-5.226667 94.506667-38.613333 131.306667-73.92 18.773333 15.573333 40.64 10.24 51.626667-10.986666z" fill="#E0CA6E" p-id="15625"></path><path d="M273.386667 367.04c85.866667-1.6 162.56-49.173333 249.28-40.533333 89.493333-8.32 175.253333 22.08 257.066666 54.293333 60.586667 36.586667 138.88 62.72 168 133.226667-3.093333 60.906667-18.666667 121.6-43.626666 177.28-58.346667 17.28-116.373333 39.146667-178.24 38.826666-35.306667-4.053333-46.933333 62.613333-80.96 41.92 14.293333-33.066667 29.866667-68.48 22.826666-105.493333-31.786667-13.76-64.426667 4.693333-95.573333 11.306667-97.813333 29.226667-199.786667 6.506667-299.52 4.8 53.653333-32 123.626667-5.973333 183.893333-13.226667-27.84-44.586667-74.666667-73.706667-99.2-120.746667-14.4-45.333333-85.866667-24.64-85.333333-80.746666 24.533333 19.306667 65.493333 8.32 66.56-25.28l4.266667-36.266667c19.093333-4.053333 67.84 7.146667 44.373333-24.213333-33.493333-21.226667-76.266667-10.24-113.813333-15.146667m249.386666 19.413333c-1.92 51.626667 72.853333 13.013333 105.813334 26.88-4.586667 17.706667-15.04 39.146667 3.733333 52.693334 20.8 28.16 71.36 5.333333 71.04-23.573334-1.493333-13.76-4.053333-27.2-7.68-40.426666 15.893333 0.853333 56.106667 13.44 49.386667-14.293334-73.706667-7.146667-148.266667-1.6-222.293334-1.28z" fill="#FDE677" p-id="15626"></path><path d="M169.066667 383.253333c46.186667-5.653333 92.693333-1.813333 138.986666 0.64L307.84 394.666667l-0.853333 21.013333c-9.28-19.626667-24.746667-8.426667-38.4-1.173333-32.96-5.76-66.453333-6.4-99.733334-8.533334 0-5.653333 0.106667-17.066667 0.213334-22.72z" fill="#4A4A3A" p-id="15627"></path><path d="M308.053333 383.893333c26.346667 0.106667 52.8-0.853333 79.146667-1.706666 23.466667 31.36-25.28 20.16-44.373333 24.213333-11.626667-3.946667-23.36-7.786667-34.986667-11.733333l0.213333-10.773334zM522.773333 386.453333c74.026667-0.32 148.586667-5.866667 222.293334 1.28 6.72 27.733333-33.493333 15.146667-49.386667 14.293334-13.76-4.586667-34.133333-6.08-36.586667 13.226666 5.653333 20.16 26.88 23.04 44.266667 27.2 0.32 28.906667-50.24 51.733333-71.04 23.573334-18.773333-13.546667-8.32-34.986667-3.733333-52.693334-32.96-13.866667-107.733333 24.746667-105.813334-26.88zM268.586667 414.506667c13.653333-7.253333 29.12-18.453333 38.4 1.173333 9.386667 10.24 20.48 18.666667 31.573333 26.986667-1.066667 33.6-42.026667 44.586667-66.56 25.28-0.64-1.6-2.133333-4.8-2.88-6.4-0.426667-15.68-0.64-31.36-0.533333-47.04z" fill="#1C1C1D" p-id="15628"></path><path d="M307.84 394.666667c11.626667 3.946667 23.36 7.786667 34.986667 11.733333l-4.266667 36.266667c-11.093333-8.32-22.186667-16.746667-31.573333-26.986667l0.853333-21.013333zM659.093333 415.253333c2.453333-19.306667 22.826667-17.813333 36.586667-13.226666 3.626667 13.226667 6.186667 26.666667 7.68 40.426666-17.386667-4.16-38.613333-7.04-44.266667-27.2z" fill="#8B8D92" p-id="15629"></path><path d="M81.28 502.506667c48.853333-19.946667 61.333333-97.6 125.013333-84.48-8.853333 67.946667-85.866667 98.346667-121.493333 152.746666-6.293333-22.293333-7.253333-45.44-3.52-68.266666z" fill="#E0CA6E" p-id="15630"></path><path d="M206.293333 418.026667c32.96-8.106667 53.76 14.186667 62.826667 43.52 0.746667 1.6 2.24 4.8 2.88 6.4-0.533333 56.106667 70.933333 35.413333 85.333333 80.746666 24.533333 47.04 71.36 76.16 99.2 120.746667-60.266667 7.253333-130.24-18.773333-183.893333 13.226667-17.706667 13.973333-36.48 29.866667-40.853333 53.333333 64.64 157.973333 324.053333 180.373333 413.12 36.053333 34.026667 20.693333 45.653333-45.973333 80.96-41.92 61.866667 0.32 119.893333-21.546667 178.24-38.826666-82.453333 191.04-319.36 303.466667-517.546667 232.64-159.893333-44.48-276.266667-191.786667-301.76-353.173334 35.626667-54.4 112.64-84.8 121.493333-152.746666z" fill="#FFCF74" p-id="15631"></path><path d="M269.12 461.546667c0.746667 1.6 2.24 4.8 2.88 6.4-0.64-1.6-2.133333-4.8-2.88-6.4z" fill="#FDE677" p-id="15632"></path><path d="M572.16 677.866667c31.146667-6.613333 63.786667-25.066667 95.573333-11.306667 7.04 37.013333-8.533333 72.426667-22.826666 105.493333C555.84 916.373333 296.426667 893.973333 231.786667 736c4.373333-23.466667 23.146667-39.36 40.853333-53.333333 99.733333 1.706667 201.706667 24.426667 299.52-4.8m39.04 7.786666c-46.826667 11.733333-16 79.466667-22.72 115.84 40.213333-25.706667 64.64-74.24 62.613333-121.813333-13.653333 0.213333-26.88 2.133333-39.893333 5.973333m-52.693333 12.586667c-17.92 2.986667-35.733333 6.4-53.226667 11.306667-3.946667 43.626667-1.706667 87.786667-0.106667 131.52 26.453333-7.573333 71.893333-14.186667 64.64-51.84-4.8-26.986667 10.026667-80-11.306666-90.986667m-278.933334 9.28c-49.173333 22.933333 1.173333 76.906667 30.933334 93.013333-4.906667-31.36 23.04-113.173333-30.933334-93.013333m50.88-2.666667c-0.64 37.226667-6.186667 76.266667 2.88 112.533334 20.373333 9.706667 42.453333 15.146667 64.746667 18.133333 1.28-42.666667 2.346667-85.76-2.56-128.32-21.546667-2.56-43.413333-3.413333-65.066667-2.346667m86.933334 7.573334c-1.173333 43.093333-1.6 86.4 0.853333 129.493333 23.253333 4.053333 47.146667 4.48 70.4 0.853333 2.026667-43.2 0.853333-86.613333-1.066667-129.706666-23.253333-3.733333-46.933333-3.52-70.186666-0.64z" fill="#7F2116" p-id="15633"></path><path d="M611.2 685.653333c13.013333-3.84 26.24-5.76 39.893333-5.973333 2.026667 47.573333-22.4 96.106667-62.613333 121.813333 6.72-36.373333-24.106667-104.106667 22.72-115.84zM558.506667 698.24c21.333333 10.986667 6.506667 64 11.306666 90.986667 7.253333 37.653333-38.186667 44.266667-64.64 51.84-1.6-43.733333-3.84-87.893333 0.106667-131.52 17.493333-4.906667 35.306667-8.32 53.226667-11.306667zM279.573333 707.52c53.973333-20.16 26.026667 61.653333 30.933334 93.013333-29.76-16.106667-80.106667-70.08-30.933334-93.013333zM330.453333 704.853333c21.653333-1.066667 43.52-0.213333 65.066667 2.346667 4.906667 42.56 3.84 85.653333 2.56 128.32-22.293333-2.986667-44.373333-8.426667-64.746667-18.133333-9.066667-36.266667-3.52-75.306667-2.88-112.533334zM417.386667 712.426667c23.253333-2.88 46.933333-3.093333 70.186666 0.64 1.92 43.093333 3.093333 86.506667 1.066667 129.706666-23.253333 3.626667-47.146667 3.2-70.4-0.853333-2.453333-43.093333-2.026667-86.4-0.853333-129.493333z" fill="#FFFFFF" p-id="15634"></path></svg>